<?xml version="1.0" encoding="UTF-8" standalone="no"?>
<svg
   xmlns:dc="http://purl.org/dc/elements/1.1/"
   xmlns:cc="http://creativecommons.org/ns#"
   xmlns:rdf="http://www.w3.org/1999/02/22-rdf-syntax-ns#"
   xmlns:svg="http://www.w3.org/2000/svg"
   xmlns="http://www.w3.org/2000/svg"
   xmlns:sodipodi="http://sodipodi.sourceforge.net/DTD/sodipodi-0.dtd"
   xmlns:inkscape="http://www.inkscape.org/namespaces/inkscape"
   fill="none"
   height="24"
   viewBox="0 0 24 24"
   width="24"
   version="1.1"
   id="svg4"
   sodipodi:docname="7124054 - inbox.svg"
   inkscape:version="1.0.2 (e86c870879, 2021-01-15)">
  <metadata
     id="metadata10">
    <rdf:RDF>
      <cc:Work
         rdf:about="">
        <dc:format>image/svg+xml</dc:format>
        <dc:type
           rdf:resource="http://purl.org/dc/dcmitype/StillImage" />
      </cc:Work>
    </rdf:RDF>
  </metadata>
  <defs
     id="defs8" />
  <sodipodi:namedview
     pagecolor="#ffffff"
     bordercolor="#666666"
     borderopacity="1"
     objecttolerance="10"
     gridtolerance="10"
     guidetolerance="10"
     inkscape:pageopacity="0"
     inkscape:pageshadow="2"
     inkscape:window-width="2560"
     inkscape:window-height="1377"
     id="namedview6"
     showgrid="false"
     inkscape:zoom="42"
     inkscape:cx="7.4166667"
     inkscape:cy="12"
     inkscape:window-x="-8"
     inkscape:window-y="-8"
     inkscape:window-maximized="1"
     inkscape:current-layer="svg4" />
  <path
     d="M20 13V6C20 4.89543 19.1046 4 18 4H6C4.89543 4 4 4.89543 4 6V13M20 13V18C20 19.1046 19.1046 20 18 20H6C4.89543 20 4 19.1046 4 18V13M20 13H17.4142C17.149 13 16.8946 13.1054 16.7071 13.2929L14.2929 15.7071C14.1054 15.8946 13.851 16 13.5858 16H10.4142C10.149 16 9.89464 15.8946 9.70711 15.7071L7.29289 13.2929C7.10536 13.1054 6.851 13 6.58579 13H4"
     stroke="#4A5568"
     stroke-linecap="round"
     stroke-linejoin="round"
     stroke-width="2"
     id="path2"
     style="fill:none;stroke:#999999;stroke-opacity:1" />
</svg>
